<svg width="112" height="119" viewBox="0 0 112 119" fill="none" xmlns="http://www.w3.org/2000/svg">
<g clip-path="url(#clip0_1_94)">
<path d="M55.7774 104.193V119L55.4825 118.827L44.6707 112.587V97.7805L55.4825 104.02L55.7774 104.193Z" fill="#213A58"/>
<path d="M55.7774 60.1765V74.9834L44.6707 68.5707V53.7639L55.7774 60.1765Z" fill="#213A58"/>
<path d="M55.7903 81.4025L55.7839 96.2029L55.5017 96.0362L44.645 89.7967L0 64.146V0.00641632L4.84798 2.79593L6.44474 3.71294L22.3161 12.8318L44.645 25.6635L55.5017 31.9031L55.7903 32.0762V46.8638L55.5017 46.6971L44.6258 40.4191L12.8253 22.0596V56.7393L44.6194 74.9898L55.4889 81.2293L55.7903 81.4025Z" fill="#213A58"/>
<path d="M104.828 0L82.6145 12.8253H28.9404L6.7269 0H104.828Z" fill="#213A58"/>
<path d="M66.8842 97.7805V112.587L55.7774 119V104.193L66.8842 97.7805Z" fill="#C7D0D9"/>
<path d="M111.311 0.00641632V14.8197L106.495 17.6028L104.905 18.5198L98.4859 22.2263L89.1105 27.6386L66.8906 40.4704L55.7903 46.8766V32.0762L66.8842 25.6635L89.1041 12.8318L104.899 3.71294L106.489 2.79593L111.311 0.00641632Z" fill="#C7D0D9"/>
<path d="M111.318 28.1132V64.1396L98.4987 71.5398L66.8906 89.7903L55.7839 96.2029V81.3961L66.8906 74.9834L98.4923 56.7329L98.4987 56.7265V50.3267L98.4923 50.3331L66.897 68.5707L55.7774 74.9834V60.1765L66.897 53.7639L89.1169 40.9321L98.4923 35.5198L104.911 31.8133L106.502 30.8963L111.318 28.1132Z" fill="#C7D0D9"/>
<path d="M55.7774 11.2799V26.0803L44.6707 19.6741V4.86081L55.7774 11.2799Z" fill="#213A58"/>
<path d="M55.7774 11.2799V26.0803L66.8842 19.6741V4.86081L55.7774 11.2799Z" fill="#C7D0D9"/>
</g>
<defs>
<clipPath id="clip0_1_94">
<rect width="111.318" height="119" fill="white"/>
</clipPath>
</defs>
</svg>
