<svg width="281" height="119" viewBox="0 0 281 119" fill="none" xmlns="http://www.w3.org/2000/svg">
<g clip-path="url(#clip0_2_218)">
<path d="M56.2751 104.425V118.934L55.9764 118.76L45.0679 112.649V98.14L55.9764 104.25L56.2751 104.425Z" fill="#0081FF"/>
<path d="M56.2666 61.2867V75.7959L45.0679 69.5113V55.0022L56.2666 61.2867Z" fill="#0081FF"/>
<path d="M56.2837 82.0887L56.2751 96.5896L55.9934 96.432L45.0423 90.3133L0 65.1752V2.32976L4.89089 5.05748L6.50412 5.96119L22.5169 14.8905L45.0423 27.4679L55.9934 33.5866L56.2837 33.7525V48.245L55.9934 48.0792L45.0252 41.9273L12.9399 23.936V57.9206L45.0081 75.8042L55.9764 81.9229L56.2837 82.0887Z" fill="#0081FF"/>
<path d="M105.756 2.32147L83.3415 14.8906H29.2002L6.7858 2.32147H105.756Z" fill="#0081FF"/>
<path d="M67.4738 98.14V112.649L56.2751 118.934V104.425L67.4738 98.14Z" fill="#213A58"/>
<path d="M112.294 2.32976V16.8389L107.437 19.5666L105.833 20.4704L99.3628 24.1018L89.8968 29.408L67.4823 41.9771L56.2837 48.2533V33.7525L67.4738 27.4679L89.8968 14.8905L105.824 5.96119L107.429 5.05748L112.294 2.32976Z" fill="#213A58"/>
<path d="M112.303 29.8723V65.1752L99.3713 72.4214L67.4823 90.305L56.2751 96.5896V82.0804L67.4823 75.7959L99.3628 57.9123H99.3713V51.636L99.3628 51.6443L67.4909 69.5113L56.2751 75.7959V61.2867L67.4909 55.0022L89.9053 42.4331L99.3628 37.1269L105.841 33.4954L107.446 32.6L112.303 29.8723Z" fill="#213A58"/>
<path d="M56.2666 13.3733V27.8825L45.0679 21.5979V7.08877L56.2666 13.3733Z" fill="#0081FF"/>
<path d="M56.2751 13.3733V27.8825L67.4738 21.5979V7.08877L56.2751 13.3733Z" fill="#213A58"/>
<path d="M85.6973 118.702V99.8645H98.7994V101.771H88.1726V108.346H97.7154V110.22H88.1726V116.853H98.7994V118.718L85.6973 118.702Z" fill="#0B0B0B"/>
<path d="M104.672 118.702V99.8645H106.9L117.996 115.02V99.8645H120.471V118.702H118.209L107.19 103.579V118.702H104.672Z" fill="#0B0B0B"/>
<path d="M135.605 119C133.797 119.066 132.003 118.665 130.407 117.839C129.056 117.098 127.979 115.964 127.325 114.598C126.609 113.06 126.256 111.385 126.293 109.698C126.253 107.868 126.581 106.049 127.257 104.342C127.85 102.885 128.905 101.651 130.27 100.818C131.882 99.928 133.719 99.497 135.571 99.5743C136.594 99.565 137.617 99.6426 138.626 99.8065C139.496 99.955 140.353 100.171 141.187 100.453V102.559C140.357 102.256 139.5 102.025 138.626 101.871C137.683 101.701 136.726 101.618 135.767 101.622C134.315 101.551 132.873 101.885 131.61 102.584C130.576 103.244 129.801 104.222 129.408 105.361C128.941 106.761 128.719 108.227 128.751 109.698C128.624 111.621 129.212 113.524 130.407 115.062C131.511 116.322 133.286 116.952 135.733 116.952C136.571 116.951 137.408 116.882 138.234 116.745C138.965 116.628 139.683 116.442 140.376 116.189V110.195H135.195V108.537H142.544V117.491C141.746 117.95 140.883 118.293 139.984 118.511C138.554 118.868 137.081 119.033 135.605 119Z" fill="#0B0B0B"/>
<path d="M148.4 118.702V99.8645H161.502V101.771H150.875V108.346H160.418V110.22H150.875V116.853H161.502V118.718L148.4 118.702Z" fill="#0B0B0B"/>
<path d="M167.374 118.702V99.8645H169.602L180.698 115.02V99.8645H183.165V118.702H180.869L169.858 103.579V118.702H167.374Z" fill="#0B0B0B"/>
<path d="M189.601 118.702V99.8645H192.051V108.346H202.293V99.8645H204.76V118.702H202.293V110.22H192.051V118.702H189.601Z" fill="#0B0B0B"/>
<path d="M210.65 118.702L218.024 99.8645H220.918L228.267 118.702H225.706L223.658 113.528H215.225L213.176 118.702H210.65ZM215.677 111.629H223.24L219.441 101.979L215.677 111.629Z" fill="#0B0B0B"/>
<path d="M234.14 118.702V99.8645H242.675C244.758 99.8645 246.277 100.392 247.233 101.448C248.242 102.648 248.754 104.171 248.667 105.718C248.714 106.947 248.349 108.157 247.626 109.167C246.865 110.129 245.764 110.785 244.536 111.008C244.901 111.216 245.216 111.499 245.458 111.837C245.714 112.219 245.932 112.624 246.107 113.047L248.667 118.718H246.107L243.631 113.254C243.443 112.756 243.115 112.32 242.684 111.994C242.078 111.685 241.393 111.553 240.712 111.613H236.615V118.718L234.14 118.702ZM236.606 109.722H241.967C243.081 109.784 244.18 109.448 245.057 108.777C245.462 108.377 245.773 107.897 245.967 107.368C246.162 106.84 246.236 106.277 246.183 105.718C246.183 103.081 244.894 101.771 242.3 101.771H236.606V109.722Z" fill="#0B0B0B"/>
<path d="M254.531 118.702V99.8645H256.998V118.702H254.531Z" fill="#0B0B0B"/>
<path d="M262.896 118.702L270.271 99.8645H273.139L280.488 118.702H277.927L275.879 113.528H267.445L265.397 118.702H262.896ZM267.923 111.629H275.486L271.662 101.979L267.923 111.629Z" fill="#0B0B0B"/>
<path d="M154.912 81.9809V16.7975H130.518V1.25194H200.074V16.7975H175.688V81.9809H154.912Z" fill="#0081FF"/>
<path d="M249.504 83.2328C235.141 83.2328 224.216 79.7037 216.727 72.6453C209.239 65.5869 205.497 55.6212 205.503 42.7481C205.503 29.2892 209.33 18.8011 216.983 11.284C224.637 3.76686 235.909 0.00553006 250.801 2.76044e-06C255.398 -0.0326066 259.991 0.261122 264.543 0.878843C268.505 1.43295 272.411 2.31218 276.22 3.50707V20.8103C272.491 19.4675 268.616 18.5412 264.671 18.0494C260.583 17.5467 256.467 17.2975 252.346 17.3032C243.401 17.3032 236.882 19.3704 232.791 23.5048C228.7 27.6393 226.657 34.0537 226.662 42.7481C226.662 50.6853 228.6 56.5553 232.475 60.3581C236.35 64.1609 242.069 66.0623 249.632 66.0623C254.357 66.0997 259.059 65.4228 263.57 64.0559V48.7674H245.646V36.0988H281.009V76.0943C277.204 78.3024 273.098 79.9772 268.811 81.0689C263.599 82.5115 257.163 83.2328 249.504 83.2328Z" fill="#0081FF"/>
</g>
<defs>
<clipPath id="clip0_2_218">
<rect width="281" height="119" fill="white"/>
</clipPath>
</defs>
</svg>
